<svg xmlns="http://www.w3.org/2000/svg" width="501" height="250" viewBox="0 0 501 250">
  <g transform="translate(-758 -684)">
    <text id="AKS" transform="translate(758 877)" fill="#fff" font-size="250" font-family="Helvetica"><tspan x="0" y="0">Carbonile</tspan></text>
    <path id="AKS_-_Outline" data-name="AKS - Outline" d="M416.5,6.749a113.584,113.584,0,0,1-16.029-1.083A84.93,84.93,0,0,1,386.223,2.4a67.869,67.869,0,0,1-12.46-5.462,60.423,60.423,0,0,1-10.629-7.664h0a56.667,56.667,0,0,1-8.479-9.491,54.648,54.648,0,0,1-6.01-11.054,61.334,61.334,0,0,1-3.521-12.568,77.754,77.754,0,0,1-1.044-14.043l.019-1.481h25.727l.079,1.416a60.777,60.777,0,0,0,2.171,13.49,38.155,38.155,0,0,0,4.779,10.538,33.994,33.994,0,0,0,6.887,7.463,38.136,38.136,0,0,0,9.14,5.357,53.169,53.169,0,0,0,11.478,3.247,82.281,82.281,0,0,0,13.853,1.092,74.267,74.267,0,0,0,24.41-3.823,42.82,42.82,0,0,0,9.183-4.374,27.015,27.015,0,0,0,6.436-5.707,22.416,22.416,0,0,0,3.819-7.052,27.393,27.393,0,0,0,1.283-8.55,29.782,29.782,0,0,0-2.163-11.94,17.764,17.764,0,0,0-6.325-7.686C448.85-69.84,439.243-73.341,426.3-76.3l-24.289-5.492a187.43,187.43,0,0,1-20.491-5.694,64.677,64.677,0,0,1-13.691-6.355,41.072,41.072,0,0,1-7.762-6.552,36.289,36.289,0,0,1-5.571-8.03,39.306,39.306,0,0,1-3.333-9.447,50.758,50.758,0,0,1-1.1-10.8,63.538,63.538,0,0,1,1.072-11.823,53.429,53.429,0,0,1,3.227-10.763,50.843,50.843,0,0,1,5.385-9.662,55.431,55.431,0,0,1,7.52-8.525,52.532,52.532,0,0,1,9.5-6.983,60.021,60.021,0,0,1,11.253-4.97,76.614,76.614,0,0,1,12.965-2.966,104.348,104.348,0,0,1,14.662-.984,97.078,97.078,0,0,1,26.487,3.46,75.3,75.3,0,0,1,22.278,10.417,44.748,44.748,0,0,1,8.924,8.1,44.551,44.551,0,0,1,6.376,10.2,54.378,54.378,0,0,1,3.8,12.236,76.229,76.229,0,0,1,1.259,14.216v1.5H459.128l-.167-1.311a60.4,60.4,0,0,0-2.795-12.415,31.8,31.8,0,0,0-4.71-8.943,29.614,29.614,0,0,0-6.205-5.84,35.889,35.889,0,0,0-8.122-4.208c-6.089-2.266-13.563-3.415-22.212-3.415a65.133,65.133,0,0,0-18.042,2.2,28.191,28.191,0,0,0-11.8,6.417,29.993,29.993,0,0,0-6.72,9.3,25.8,25.8,0,0,0-2.219,10.618,21.311,21.311,0,0,0,2.55,10.671,19.432,19.432,0,0,0,7.658,7.3c4.664,2.527,15.5,5.763,32.209,9.619l25.143,5.736A108.148,108.148,0,0,1,460.035-94.5a57.542,57.542,0,0,1,12.284,6.617l.006,0a43.856,43.856,0,0,1,7.741,7.245,40.586,40.586,0,0,1,5.546,8.738,45.146,45.146,0,0,1,3.316,10.173,58.386,58.386,0,0,1,1.1,11.551,68.473,68.473,0,0,1-1.387,14.143,49.118,49.118,0,0,1-4.193,12.08A42.011,42.011,0,0,1,477.423-14a45.474,45.474,0,0,1-9.8,7.726A90.636,90.636,0,0,1,443.806,3.5,110.88,110.88,0,0,1,416.5,6.749Zm-69.429-63.11a73.644,73.644,0,0,0,1.007,12.018,58.331,58.331,0,0,0,3.346,11.953,51.641,51.641,0,0,0,5.679,10.446,53.665,53.665,0,0,0,8.031,8.987l0,0a57.412,57.412,0,0,0,10.1,7.286A64.859,64.859,0,0,0,387.154-.449,81.922,81.922,0,0,0,400.9,2.7a110.58,110.58,0,0,0,15.6,1.053A107.883,107.883,0,0,0,443.066.591a87.638,87.638,0,0,0,23.029-9.45,42.481,42.481,0,0,0,9.157-7.213,39.016,39.016,0,0,0,6.52-9.236A46.125,46.125,0,0,0,485.7-36.65a65.48,65.48,0,0,0,1.322-13.521,55.385,55.385,0,0,0-1.038-10.955,42.143,42.143,0,0,0-3.093-9.5,37.584,37.584,0,0,0-5.135-8.092,40.852,40.852,0,0,0-7.212-6.747,54.582,54.582,0,0,0-11.636-6.257,105.162,105.162,0,0,0-15.885-4.841L417.879-102.3c-17.222-3.974-28.007-7.216-32.974-9.91l-.013-.007c-7.8-4.334-11.758-11.265-11.758-20.6a28.784,28.784,0,0,1,2.481-11.843,32.97,32.97,0,0,1,7.379-10.234,31.135,31.135,0,0,1,13.039-7.133,68.083,68.083,0,0,1,18.884-2.319,82.921,82.921,0,0,1,12.566.895,54.688,54.688,0,0,1,10.693,2.709,38.883,38.883,0,0,1,8.8,4.565,32.608,32.608,0,0,1,6.837,6.438l.008.01a34.766,34.766,0,0,1,5.174,9.79,61.628,61.628,0,0,1,2.765,11.726h20a71.791,71.791,0,0,0-1.193-12.154,51.385,51.385,0,0,0-3.589-11.56,41.551,41.551,0,0,0-5.945-9.518,41.748,41.748,0,0,0-8.327-7.552,72.308,72.308,0,0,0-21.393-10,94.088,94.088,0,0,0-25.667-3.346,86.176,86.176,0,0,0-26.694,3.8,57.015,57.015,0,0,0-10.69,4.719,49.532,49.532,0,0,0-8.96,6.583,52.426,52.426,0,0,0-7.113,8.061,47.842,47.842,0,0,0-5.067,9.091,50.425,50.425,0,0,0-3.044,10.157,60.535,60.535,0,0,0-1.019,11.263,47.76,47.76,0,0,0,1.034,10.155,36.31,36.31,0,0,0,3.076,8.726,33.288,33.288,0,0,0,5.111,7.366,38.066,38.066,0,0,0,7.194,6.069c6.408,4.193,17.578,8.107,33.2,11.631l24.293,5.493A145.789,145.789,0,0,1,444.3-74.254a59.9,59.9,0,0,1,12.211,5.863l.019.013a20.717,20.717,0,0,1,7.4,8.969,32.726,32.726,0,0,1,2.415,13.145c0,13.667-7.649,23.261-22.735,28.516a69.9,69.9,0,0,1-12.1,3,86.142,86.142,0,0,1-13.294.995,85.282,85.282,0,0,1-14.361-1.136,56.169,56.169,0,0,1-12.127-3.436,41.134,41.134,0,0,1-9.857-5.782,36.992,36.992,0,0,1-7.5-8.126l-.007-.01A41.14,41.14,0,0,1,369.2-43.618,62.346,62.346,0,0,1,367-56.361ZM335.439,1.5H300.121l-62.19-89.171L210.973-61.859V1.5H184.291V-180.821h26.682V-95.54l85.281-85.281h37.894l-76.317,73.943Zm-33.753-3H329.6L253.887-107.233l.928-.9,71.925-69.688H297.5L207.973-88.3v-89.524H187.291V-1.5h20.682V-63.14l30.415-29.12Zm-135.85,3H136.009L117.821-52.211H49.026L29.617,1.5H1.495L70.129-180.821H99.684Zm-27.676-3h23.4L97.581-177.821H72.205L5.83-1.5H27.512L46.921-55.211h73.051ZM113.186-71.986h-60.4L83.905-157.2Zm-56.109-3h51.906L83.819-148.219Z" transform="translate(758 877)"/>
  </g>
</svg>
